# xmcd CD database file
#
# Track frame offsets:
#	187
#	17232
#	38440
#	62657
#	79947
#	101665
#	120902
#	141355
#	160317
#	175620
#	194765
#	215127
#	234797
#	252297
#	272410
#	301575
#	325622
#
# Disc length: 4688 seconds
#
# Revision: 0
# Processed by: cddbd v1.4PL0 Copyright (c) Steve Scherf et al.
# Submitted via: CD2WAV32(EN) R3.19
#
DISCID=dc124e11
DTITLE=Mattbianco - A Collection
DYEAR=1900
DGENRE=
TTITLE0=Sunshine Day
TTITLE1=Lost In You
TTITLE2=Boogie Mi Vista
TTITLE3=Caravan
TTITLE4=Our Love
TTITLE5=You And I
TTITLE6=Gypsy Lady
TTITLE7=A Day In Your Life
TTITLE8=Yeh! Yeh!
TTITLE9=More Than I Can Bear
TTITLE10=What A Fool Believes
TTITLE11=Goodtimes
TTITLE12=Dancing In The Street
TTITLE13=Get Out Of Your Lazy Bed
TTITLE14=Say It's Not Too Late
TTITLE15=Whose Side Are You On?
TTITLE16=Don't Blame It On That Girl
EXTD=
EXTT0=
EXTT1=
EXTT2=
EXTT3=
EXTT4=
EXTT5=
EXTT6=
EXTT7=
EXTT8=
EXTT9=
EXTT10=
EXTT11=
EXTT12=
EXTT13=
EXTT14=
EXTT15=
EXTT16=
PLAYORDER=
